P3
3 3
255

255 0 0		 0 255 0	    0 0 255
255 255 0	 255 0 255		0 255 255 
255 255		 255 125 125	125	0 0 0